<svg width="146" height="149" viewBox="0 0 146 149" fill="none" xmlns="http://www.w3.org/2000/svg">
<path opacity="0.65" d="M91.4936 61.8856L133.241 70.8782L93.8104 87.2776C90.8905 88.4919 89.1121 91.4769 89.4341 94.6227L93.7823 137.106L66.0007 104.673C63.9435 102.271 60.5551 101.502 57.6627 102.78L18.6024 120.044L40.8634 83.5995L36.4556 80.9072L40.8634 83.5995C42.5118 80.9009 42.1961 77.4407 40.0865 75.0848L11.5977 43.271L53.1372 53.1805C56.2132 53.9143 59.4065 52.5448 60.9951 49.8105L82.4484 12.885L85.8603 55.4536C86.1129 58.6059 88.4022 61.2196 91.4936 61.8855L92.5812 56.8364L91.4936 61.8856Z" stroke="url(#paint0_linear_3_163)" stroke-width="10.33"/>
<defs>
<linearGradient id="paint0_linear_3_163" x1="100.602" y1="153.007" x2="35.2671" y2="0.666764" gradientUnits="userSpaceOnUse">
<stop offset="0.0141414" stop-color="#E60065"/>
<stop offset="1" stop-color="#0C5445"/>
</linearGradient>
</defs>
</svg>
