<svg width="109" height="310" viewBox="0 0 109 310" fill="none" xmlns="http://www.w3.org/2000/svg">
<path fill-rule="evenodd" clip-rule="evenodd" d="M0.53548 1.75889C0.205143 2.25257 0.028817 2.8332 0.0288086 3.42721C0.0287983 4.22017 0.342724 4.98089 0.901975 5.54305C1.46123 6.10522 2.22028 6.4231 3.01324 6.42721C3.60723 6.43028 4.1888 6.25695 4.68419 5.92919C5.17958 5.60142 5.56652 5.13397 5.79596 4.58607C6.02541 4.03817 6.08704 3.43448 5.97304 2.85152C5.85905 2.26856 5.57455 1.73256 5.15562 1.31144C4.73669 0.890329 4.20217 0.60306 3.61981 0.486039C3.03745 0.369018 2.43347 0.427514 1.88439 0.654113C1.3353 0.880712 0.865816 1.26521 0.53548 1.75889ZM0.535517 45.0528C0.205182 45.5465 0.0288575 46.1271 0.0288495 46.7211C0.0268014 47.1143 0.102498 47.5041 0.251563 47.868C0.400628 48.2319 0.620121 48.5627 0.897456 48.8415C1.17479 49.1203 1.50447 49.3415 1.86758 49.4924C2.23068 49.6434 2.62002 49.7211 3.01326 49.7211C3.60725 49.7242 4.18882 49.5508 4.6842 49.2231C5.17958 48.8953 5.56652 48.4279 5.79597 47.88C6.02541 47.3321 6.08704 46.7284 5.97305 46.1454C5.85905 45.5624 5.57455 45.0264 5.15562 44.6053C4.73669 44.1842 4.20218 43.8969 3.61983 43.7799C3.03747 43.6629 2.4335 43.7214 1.88442 43.948C1.33534 44.1746 0.865851 44.5591 0.535517 45.0528ZM0.0288495 89.9911C0.0288575 89.3971 0.205182 88.8165 0.535517 88.3228C0.865851 87.8291 1.33534 87.4446 1.88442 87.218C2.4335 86.9914 3.03747 86.9329 3.61983 87.0499C4.20218 87.1669 4.73669 87.4542 5.15562 87.8753C5.57455 88.2965 5.85905 88.8325 5.97305 89.4154C6.08704 89.9984 6.02541 90.6021 5.79597 91.15C5.56652 91.6979 5.17958 92.1653 4.6842 92.4931C4.18882 92.8208 3.60725 92.9942 3.01326 92.9911C2.62002 92.9911 2.23068 92.9134 1.86758 92.7624C1.50447 92.6115 1.17479 92.3903 0.897456 92.1115C0.620121 91.8327 0.400628 91.5019 0.251563 91.138C0.102498 90.7741 0.0268014 90.3843 0.0288495 89.9911ZM0.53548 131.617C0.205143 132.111 0.028817 132.691 0.0288086 133.285C0.0287983 134.078 0.342724 134.839 0.901975 135.401C1.46123 135.963 2.22028 136.281 3.01324 136.285C3.60723 136.288 4.1888 136.115 4.68419 135.787C5.17958 135.46 5.56652 134.992 5.79596 134.444C6.02541 133.896 6.08704 133.293 5.97304 132.71C5.85905 132.127 5.57455 131.591 5.15562 131.17C4.73669 130.748 4.20217 130.461 3.61981 130.344C3.03745 130.227 2.43347 130.286 1.88439 130.512C1.3353 130.739 0.865816 131.123 0.53548 131.617ZM0.0288495 176.556C0.0288575 175.962 0.205182 175.381 0.535517 174.887C0.865851 174.394 1.33534 174.009 1.88442 173.782C2.4335 173.556 3.03747 173.497 3.61983 173.614C4.20218 173.731 4.73669 174.019 5.15562 174.44C5.57455 174.861 5.85905 175.397 5.97305 175.98C6.08704 176.563 6.02541 177.167 5.79597 177.714C5.56652 178.262 5.17958 178.73 4.6842 179.058C4.18882 179.385 3.60725 179.559 3.01326 179.556C2.62002 179.556 2.23068 179.478 1.86758 179.327C1.50447 179.176 1.17479 178.955 0.897456 178.676C0.620121 178.397 0.400628 178.066 0.251563 177.702C0.102498 177.339 0.0268014 176.949 0.0288495 176.556ZM0.53548 218.182C0.205143 218.675 0.028817 219.256 0.0288086 219.85C0.0287983 220.643 0.342724 221.404 0.901975 221.966C1.46123 222.528 2.22028 222.846 3.01324 222.85C3.60723 222.853 4.1888 222.68 4.68419 222.352C5.17958 222.024 5.56652 221.557 5.79596 221.009C6.02541 220.461 6.08704 219.857 5.97304 219.274C5.85905 218.691 5.57455 218.155 5.15562 217.734C4.73669 217.313 4.20217 217.026 3.61981 216.909C3.03745 216.792 2.43347 216.85 1.88439 217.077C1.3353 217.303 0.865816 217.688 0.53548 218.182ZM0.0288488 263.183C0.0257756 262.588 0.199471 262.006 0.527931 261.511C0.85639 261.015 1.32481 260.628 1.87362 260.399C2.42243 260.17 3.02689 260.109 3.61027 260.224C4.19366 260.34 4.72963 260.626 5.15012 261.046C5.57061 261.467 5.85665 262.003 5.97191 262.586C6.08717 263.17 6.02647 263.774 5.79749 264.323C5.5685 264.872 5.18158 265.34 4.68585 265.668C4.19013 265.997 3.60794 266.171 3.01328 266.168C2.22175 266.168 1.46266 265.853 0.902965 265.293C0.34327 264.734 0.0288488 263.975 0.0288488 263.183ZM0.53548 304.746C0.205143 305.24 0.028817 305.82 0.0288086 306.414C0.0287983 307.207 0.342724 307.968 0.901975 308.53C1.46123 309.092 2.22028 309.41 3.01324 309.414C3.60723 309.418 4.1888 309.244 4.68419 308.916C5.17958 308.589 5.56652 308.121 5.79596 307.573C6.02541 307.025 6.08704 306.422 5.97304 305.839C5.85905 305.256 5.57455 304.72 5.15562 304.299C4.73669 303.878 4.20217 303.59 3.61981 303.473C3.03745 303.356 2.43347 303.415 1.88439 303.641C1.3353 303.868 0.865816 304.252 0.53548 304.746ZM34.0345 3.42721C34.0345 2.8332 34.2108 2.25257 34.5412 1.75889C34.8715 1.26521 35.341 0.880712 35.8901 0.654113C36.4391 0.427514 37.0431 0.369018 37.6255 0.486039C38.2078 0.60306 38.7424 0.890329 39.1613 1.31144C39.5802 1.73256 39.8647 2.26856 39.9787 2.85152C40.0927 3.43448 40.0311 4.03817 39.8016 4.58607C39.5722 5.13397 39.1853 5.60142 38.6899 5.92919C38.1945 6.25695 37.6129 6.43028 37.0189 6.42721C36.226 6.4231 35.4669 6.10522 34.9076 5.54305C34.3484 4.98089 34.0345 4.22017 34.0345 3.42721ZM34.5412 45.0528C34.2109 45.5465 34.0345 46.1271 34.0345 46.7211C34.0325 47.1143 34.1082 47.5041 34.2572 47.868C34.4063 48.2319 34.6258 48.5627 34.9031 48.8415C35.1805 49.1203 35.5101 49.3415 35.8732 49.4924C36.2364 49.6434 36.6257 49.7211 37.0189 49.7211C37.6129 49.7242 38.1945 49.5508 38.6899 49.2231C39.1853 48.8953 39.5722 48.4279 39.8016 47.88C40.0311 47.3321 40.0927 46.7284 39.9787 46.1454C39.8647 45.5624 39.5802 45.0264 39.1613 44.6053C38.7424 44.1842 38.2079 43.8969 37.6255 43.7799C37.0431 43.6629 36.4392 43.7214 35.8901 43.948C35.341 44.1746 34.8715 44.5591 34.5412 45.0528ZM34.0345 89.9911C34.0345 89.3971 34.2109 88.8165 34.5412 88.3228C34.8715 87.8291 35.341 87.4446 35.8901 87.218C36.4392 86.9914 37.0431 86.9329 37.6255 87.0499C38.2079 87.1669 38.7424 87.4542 39.1613 87.8753C39.5802 88.2965 39.8647 88.8325 39.9787 89.4154C40.0927 89.9984 40.0311 90.6021 39.8016 91.15C39.5722 91.6979 39.1853 92.1653 38.6899 92.4931C38.1945 92.8208 37.6129 92.9942 37.0189 92.9911C36.6257 92.9911 36.2364 92.9134 35.8732 92.7624C35.5101 92.6115 35.1805 92.3903 34.9031 92.1115C34.6258 91.8327 34.4063 91.5019 34.2572 91.138C34.1082 90.7741 34.0325 90.3843 34.0345 89.9911ZM34.5412 131.617C34.2108 132.111 34.0345 132.691 34.0345 133.285C34.0345 134.078 34.3484 134.839 34.9076 135.401C35.4669 135.963 36.226 136.281 37.0189 136.285C37.6129 136.288 38.1945 136.115 38.6899 135.787C39.1853 135.46 39.5722 134.992 39.8016 134.444C40.0311 133.896 40.0927 133.293 39.9787 132.71C39.8647 132.127 39.5802 131.591 39.1613 131.17C38.7424 130.748 38.2078 130.461 37.6255 130.344C37.0431 130.227 36.4391 130.286 35.8901 130.512C35.341 130.739 34.8715 131.123 34.5412 131.617ZM34.0345 176.556C34.0345 175.962 34.2109 175.381 34.5412 174.887C34.8715 174.394 35.341 174.009 35.8901 173.782C36.4392 173.556 37.0431 173.497 37.6255 173.614C38.2079 173.731 38.7424 174.019 39.1613 174.44C39.5802 174.861 39.8647 175.397 39.9787 175.98C40.0927 176.563 40.0311 177.167 39.8016 177.714C39.5722 178.262 39.1853 178.73 38.6899 179.058C38.1945 179.385 37.6129 179.559 37.0189 179.556C36.6257 179.556 36.2364 179.478 35.8732 179.327C35.5101 179.176 35.1805 178.955 34.9031 178.676C34.6258 178.397 34.4063 178.066 34.2572 177.702C34.1082 177.339 34.0325 176.949 34.0345 176.556ZM34.5412 218.182C34.2108 218.675 34.0345 219.256 34.0345 219.85C34.0345 220.643 34.3484 221.404 34.9076 221.966C35.4669 222.528 36.226 222.846 37.0189 222.85C37.6129 222.853 38.1945 222.68 38.6899 222.352C39.1853 222.024 39.5722 221.557 39.8016 221.009C40.0311 220.461 40.0927 219.857 39.9787 219.274C39.8647 218.691 39.5802 218.155 39.1613 217.734C38.7424 217.313 38.2078 217.026 37.6255 216.909C37.0431 216.792 36.4391 216.85 35.8901 217.077C35.341 217.303 34.8715 217.688 34.5412 218.182ZM34.0345 263.183C34.0314 262.588 34.2051 262.006 34.5336 261.511C34.8621 261.015 35.3305 260.628 35.8793 260.399C36.4281 260.17 37.0326 260.109 37.6159 260.224C38.1993 260.34 38.7353 260.626 39.1558 261.046C39.5763 261.467 39.8623 262.003 39.9776 262.586C40.0928 263.17 40.0321 263.774 39.8032 264.323C39.5742 264.872 39.1872 265.34 38.6915 265.668C38.1958 265.997 37.6136 266.171 37.019 266.168C36.2274 266.168 35.4683 265.853 34.9086 265.293C34.3489 264.734 34.0345 263.975 34.0345 263.183ZM34.5412 304.746C34.2108 305.24 34.0345 305.82 34.0345 306.414C34.0345 307.207 34.3484 307.968 34.9076 308.53C35.4669 309.092 36.226 309.41 37.0189 309.414C37.6129 309.418 38.1945 309.244 38.6899 308.916C39.1853 308.589 39.5722 308.121 39.8016 307.573C40.0311 307.025 40.0927 306.422 39.9787 305.839C39.8647 305.256 39.5802 304.72 39.1613 304.299C38.7424 303.878 38.2078 303.59 37.6255 303.473C37.0431 303.356 36.4391 303.415 35.8901 303.641C35.341 303.868 34.8715 304.252 34.5412 304.746ZM68.0401 3.42721C68.0401 2.8332 68.2164 2.25257 68.5467 1.75889C68.8771 1.26521 69.3466 0.880712 69.8956 0.654113C70.4447 0.427514 71.0487 0.369018 71.6311 0.486039C72.2134 0.60306 72.7479 0.890329 73.1669 1.31144C73.5858 1.73256 73.8703 2.26856 73.9843 2.85152C74.0983 3.43448 74.0367 4.03817 73.8072 4.58607C73.5778 5.13397 73.1908 5.60142 72.6954 5.92919C72.2001 6.25695 71.6185 6.43028 71.0245 6.42721C70.2315 6.4231 69.4725 6.10522 68.9132 5.54305C68.354 4.98089 68.0401 4.22017 68.0401 3.42721ZM68.5468 45.0528C68.2164 45.5465 68.0401 46.1271 68.0401 46.7211C68.0381 47.1143 68.1138 47.5041 68.2628 47.868C68.4119 48.2319 68.6314 48.5627 68.9087 48.8415C69.186 49.1203 69.5157 49.3415 69.8788 49.4924C70.2419 49.6434 70.6313 49.7211 71.0245 49.7211C71.6185 49.7242 72.2001 49.5508 72.6954 49.2231C73.1908 48.8953 73.5778 48.4279 73.8072 47.88C74.0367 47.3321 74.0983 46.7284 73.9843 46.1454C73.8703 45.5624 73.5858 45.0264 73.1669 44.6053C72.7479 44.1842 72.2134 43.8969 71.6311 43.7799C71.0487 43.6629 70.4447 43.7214 69.8957 43.948C69.3466 44.1746 68.8771 44.5591 68.5468 45.0528ZM68.0401 89.9911C68.0401 89.3971 68.2164 88.8165 68.5468 88.3228C68.8771 87.8291 69.3466 87.4446 69.8957 87.218C70.4447 86.9914 71.0487 86.9329 71.6311 87.0499C72.2134 87.1669 72.7479 87.4542 73.1669 87.8753C73.5858 88.2965 73.8703 88.8325 73.9843 89.4154C74.0983 89.9984 74.0367 90.6021 73.8072 91.15C73.5778 91.6979 73.1908 92.1653 72.6954 92.4931C72.2001 92.8208 71.6185 92.9942 71.0245 92.9911C70.6313 92.9911 70.2419 92.9134 69.8788 92.7624C69.5157 92.6115 69.186 92.3903 68.9087 92.1115C68.6314 91.8327 68.4119 91.5019 68.2628 91.138C68.1138 90.7741 68.0381 90.3843 68.0401 89.9911ZM68.5467 131.617C68.2164 132.111 68.0401 132.691 68.0401 133.285C68.0401 134.078 68.354 134.839 68.9132 135.401C69.4725 135.963 70.2315 136.281 71.0245 136.285C71.6185 136.288 72.2001 136.115 72.6954 135.787C73.1908 135.46 73.5778 134.992 73.8072 134.444C74.0367 133.896 74.0983 133.293 73.9843 132.71C73.8703 132.127 73.5858 131.591 73.1669 131.17C72.7479 130.748 72.2134 130.461 71.6311 130.344C71.0487 130.227 70.4447 130.286 69.8956 130.512C69.3466 130.739 68.8771 131.123 68.5467 131.617ZM68.0401 176.556C68.0401 175.962 68.2164 175.381 68.5468 174.887C68.8771 174.394 69.3466 174.009 69.8957 173.782C70.4447 173.556 71.0487 173.497 71.6311 173.614C72.2134 173.731 72.7479 174.019 73.1669 174.44C73.5858 174.861 73.8703 175.397 73.9843 175.98C74.0983 176.563 74.0367 177.167 73.8072 177.714C73.5778 178.262 73.1908 178.73 72.6954 179.058C72.2001 179.385 71.6185 179.559 71.0245 179.556C70.6313 179.556 70.2419 179.478 69.8788 179.327C69.5157 179.176 69.186 178.955 68.9087 178.676C68.6314 178.397 68.4119 178.066 68.2628 177.702C68.1138 177.339 68.0381 176.949 68.0401 176.556ZM68.5467 218.182C68.2164 218.675 68.0401 219.256 68.0401 219.85C68.0401 220.643 68.354 221.404 68.9132 221.966C69.4725 222.528 70.2315 222.846 71.0245 222.85C71.6185 222.853 72.2001 222.68 72.6954 222.352C73.1908 222.024 73.5778 221.557 73.8072 221.009C74.0367 220.461 74.0983 219.857 73.9843 219.274C73.8703 218.691 73.5858 218.155 73.1669 217.734C72.7479 217.313 72.2134 217.026 71.6311 216.909C71.0487 216.792 70.4447 216.85 69.8956 217.077C69.3466 217.303 68.8771 217.688 68.5467 218.182ZM68.0401 263.183C68.037 262.588 68.2107 262.006 68.5392 261.511C68.8676 261.015 69.3361 260.628 69.8849 260.399C70.4337 260.17 71.0381 260.109 71.6215 260.224C72.2049 260.34 72.7409 260.626 73.1614 261.046C73.5819 261.467 73.8679 262.003 73.9832 262.586C74.0984 263.17 74.0377 263.774 73.8087 264.323C73.5798 264.872 73.1928 265.34 72.6971 265.668C72.2014 265.997 71.6192 266.171 71.0245 266.168C70.233 266.168 69.4739 265.853 68.9142 265.293C68.3545 264.734 68.0401 263.975 68.0401 263.183ZM68.5467 304.746C68.2164 305.24 68.0401 305.82 68.0401 306.414C68.0401 307.207 68.354 307.968 68.9132 308.53C69.4725 309.092 70.2315 309.41 71.0245 309.414C71.6185 309.418 72.2001 309.244 72.6954 308.916C73.1908 308.589 73.5778 308.121 73.8072 307.573C74.0367 307.025 74.0983 306.422 73.9843 305.839C73.8703 305.256 73.5858 304.72 73.1669 304.299C72.7479 303.878 72.2134 303.59 71.6311 303.473C71.0487 303.356 70.4447 303.415 69.8956 303.641C69.3466 303.868 68.8771 304.252 68.5467 304.746ZM102.046 3.42721C102.046 2.8332 102.222 2.25257 102.552 1.75889C102.883 1.26521 103.352 0.880712 103.901 0.654113C104.45 0.427514 105.054 0.369018 105.637 0.486039C106.219 0.60306 106.754 0.890329 107.172 1.31144C107.591 1.73256 107.876 2.26856 107.99 2.85152C108.104 3.43448 108.042 4.03817 107.813 4.58607C107.583 5.13397 107.196 5.60142 106.701 5.92919C106.206 6.25695 105.624 6.43028 105.03 6.42721C104.237 6.4231 103.478 6.10522 102.919 5.54305C102.36 4.98089 102.046 4.22017 102.046 3.42721ZM102.552 45.0528C102.222 45.5465 102.046 46.1271 102.046 46.7211C102.044 47.1143 102.119 47.5041 102.268 47.868C102.417 48.2319 102.637 48.5627 102.914 48.8415C103.192 49.1203 103.521 49.3415 103.884 49.4924C104.248 49.6434 104.637 49.7211 105.03 49.7211C105.624 49.7242 106.206 49.5508 106.701 49.2231C107.196 48.8953 107.583 48.4279 107.813 47.88C108.042 47.3321 108.104 46.7284 107.99 46.1454C107.876 45.5624 107.591 45.0264 107.172 44.6053C106.754 44.1842 106.219 43.8969 105.637 43.7799C105.054 43.6629 104.45 43.7214 103.901 43.948C103.352 44.1746 102.883 44.5591 102.552 45.0528ZM102.046 89.9911C102.046 89.3971 102.222 88.8165 102.552 88.3228C102.883 87.8291 103.352 87.4446 103.901 87.218C104.45 86.9914 105.054 86.9329 105.637 87.0499C106.219 87.1669 106.754 87.4542 107.172 87.8753C107.591 88.2965 107.876 88.8325 107.99 89.4154C108.104 89.9984 108.042 90.6021 107.813 91.15C107.583 91.6979 107.196 92.1653 106.701 92.4931C106.206 92.8208 105.624 92.9942 105.03 92.9911C104.637 92.9911 104.248 92.9134 103.884 92.7624C103.521 92.6115 103.192 92.3903 102.914 92.1115C102.637 91.8327 102.417 91.5019 102.268 91.138C102.119 90.7741 102.044 90.3843 102.046 89.9911ZM102.552 131.617C102.222 132.111 102.046 132.691 102.046 133.285C102.046 134.078 102.36 134.839 102.919 135.401C103.478 135.963 104.237 136.281 105.03 136.285C105.624 136.288 106.206 136.115 106.701 135.787C107.196 135.46 107.583 134.992 107.813 134.444C108.042 133.896 108.104 133.293 107.99 132.71C107.876 132.127 107.591 131.591 107.172 131.17C106.754 130.748 106.219 130.461 105.637 130.344C105.054 130.227 104.45 130.286 103.901 130.512C103.352 130.739 102.883 131.123 102.552 131.617ZM102.046 176.556C102.046 175.962 102.222 175.381 102.552 174.887C102.883 174.394 103.352 174.009 103.901 173.782C104.45 173.556 105.054 173.497 105.637 173.614C106.219 173.731 106.754 174.019 107.172 174.44C107.591 174.861 107.876 175.397 107.99 175.98C108.104 176.563 108.042 177.167 107.813 177.714C107.583 178.262 107.196 178.73 106.701 179.058C106.206 179.385 105.624 179.559 105.03 179.556C104.637 179.556 104.248 179.478 103.884 179.327C103.521 179.176 103.192 178.955 102.914 178.676C102.637 178.397 102.417 178.066 102.268 177.702C102.119 177.339 102.044 176.949 102.046 176.556ZM102.552 218.182C102.222 218.675 102.046 219.256 102.046 219.85C102.046 220.643 102.36 221.404 102.919 221.966C103.478 222.528 104.237 222.846 105.03 222.85C105.624 222.853 106.206 222.68 106.701 222.352C107.196 222.024 107.583 221.557 107.813 221.009C108.042 220.461 108.104 219.857 107.99 219.274C107.876 218.691 107.591 218.155 107.172 217.734C106.754 217.313 106.219 217.026 105.637 216.909C105.054 216.792 104.45 216.85 103.901 217.077C103.352 217.303 102.883 217.688 102.552 218.182ZM102.046 263.183C102.043 262.588 102.216 262.006 102.545 261.511C102.873 261.015 103.342 260.628 103.89 260.399C104.439 260.17 105.044 260.109 105.627 260.224C106.211 260.34 106.746 260.626 107.167 261.046C107.587 261.467 107.873 262.003 107.989 262.586C108.104 263.17 108.043 263.774 107.814 264.323C107.585 264.872 107.198 265.34 106.703 265.668C106.207 265.997 105.625 266.171 105.03 266.168C104.239 266.168 103.479 265.853 102.92 265.293C102.36 264.734 102.046 263.975 102.046 263.183ZM102.552 304.746C102.222 305.24 102.046 305.82 102.046 306.414C102.046 307.207 102.36 307.968 102.919 308.53C103.478 309.092 104.237 309.41 105.03 309.414C105.624 309.418 106.206 309.244 106.701 308.916C107.196 308.589 107.583 308.121 107.813 307.573C108.042 307.025 108.104 306.422 107.99 305.839C107.876 305.256 107.591 304.72 107.172 304.299C106.754 303.878 106.219 303.59 105.637 303.473C105.054 303.356 104.45 303.415 103.901 303.641C103.352 303.868 102.883 304.252 102.552 304.746Z" fill="#F77E53"/>
</svg>
