<svg width="192" height="237" viewBox="0 0 192 237" fill="none" xmlns="http://www.w3.org/2000/svg">
<path d="M185.902 0.829415C189.011 0.524648 191.733 3.36586 191.982 7.17545C192.23 10.985 189.912 14.3203 186.803 14.6251C142.38 18.98 114.152 53.5716 101.499 120.018C87.7988 191.97 55.7923 231.191 6.09763 236.062C2.98879 236.367 0.266996 233.526 0.0182863 229.716C-0.230421 225.907 2.08817 222.571 5.19701 222.267C49.6197 217.912 77.8483 183.32 90.5006 116.873C104.201 44.9219 136.208 5.70111 185.902 0.829415ZM106.861 0.827726C109.971 0.534608 112.685 3.38606 112.924 7.19657C113.164 11.0071 110.837 14.3337 107.727 14.6268C85.8627 16.6878 70.6925 35.2774 61.8883 71.959C51.869 113.703 33.1569 136.633 6.0804 139.185C2.97081 139.478 0.256108 136.627 0.0169077 132.816C-0.222293 129.006 2.10466 125.679 5.21424 125.386C27.0787 123.325 42.2489 104.735 51.0531 68.0539C61.0724 26.3098 79.7845 3.38001 106.861 0.827726ZM185.92 97.7065C189.029 97.4134 191.744 100.265 191.983 104.075C192.222 107.886 189.895 111.212 186.786 111.506C164.921 113.567 149.751 132.156 140.947 168.838C130.928 210.582 112.216 233.512 85.139 236.064C82.0294 236.357 79.3147 233.506 79.0755 229.695C78.8363 225.885 81.1632 222.558 84.2728 222.265C106.137 220.204 121.308 201.614 130.112 164.933C140.131 123.189 158.843 100.259 185.92 97.7065Z" fill="url(#paint0_linear_3_77)"/>
<defs>
<linearGradient id="paint0_linear_3_77" x1="96" y1="0.807007" x2="96" y2="236.085" gradientUnits="userSpaceOnUse">
<stop stop-color="#E20264"/>
<stop offset="1" stop-color="#F2C7DA" stop-opacity="0.03"/>
</linearGradient>
</defs>
</svg>
