<svg width="106" height="232" viewBox="0 0 106 232" fill="none" xmlns="http://www.w3.org/2000/svg">
<path d="M-13.2721 194.746C30.7457 195.832 67.3105 161.029 68.3971 117.012C69.4836 72.9937 34.6806 36.429 -9.33723 35.3424" fill="#E60065"/>
<path d="M77.5566 117.238C78.7681 68.1626 39.9638 27.3941 -9.1112 26.1827" stroke="white" stroke-miterlimit="10"/>
<path d="M-13.4985 203.905C35.5765 205.117 76.345 166.313 77.5565 117.238" stroke="white" stroke-width="4" stroke-miterlimit="10"/>
<path d="M77.5566 117.238C78.7681 68.1626 39.9638 27.3941 -9.1112 26.1827" stroke="white" stroke-miterlimit="10"/>
<path d="M-13.4985 203.905C35.5765 205.117 76.345 166.313 77.5565 117.238" stroke="white" stroke-width="4" stroke-miterlimit="10"/>
<path d="M85.7612 117.44C87.0845 63.8325 44.6985 19.3009 -8.90905 17.9776" stroke="white" stroke-miterlimit="10"/>
<path d="M-13.701 212.111C39.9065 213.434 84.4381 171.048 85.7614 117.44" stroke="white" stroke-width="4" stroke-miterlimit="10"/>
<path d="M85.7612 117.44C87.0845 63.8325 44.6985 19.3009 -8.90905 17.9776" stroke="white" stroke-miterlimit="10"/>
<path d="M-13.701 212.111C39.9065 213.434 84.4381 171.048 85.7614 117.44" stroke="white" stroke-width="4" stroke-miterlimit="10"/>
<path d="M93.9319 117.642C95.3666 59.519 49.4156 11.242 -8.70724 9.80718" stroke="white" stroke-miterlimit="10"/>
<path d="M-13.9023 220.281C44.2205 221.716 92.4976 175.765 93.9324 117.642" stroke="white" stroke-width="4" stroke-miterlimit="10"/>
<path d="M102.799 117.861C104.355 54.844 54.5285 2.49537 -8.48804 0.939792" stroke="white" stroke-miterlimit="10"/>
<path d="M-14.1217 229.148C48.8948 230.704 101.243 180.877 102.799 117.861" stroke="white" stroke-width="4" stroke-miterlimit="10"/>
</svg>
